<mxfile host="app.diagrams.net" agent="Mozilla/5.0 (Windows NT 10.0; Win64; x64) AppleWebKit/537.36 (KHTML, like Gecko) Chrome/130.0.0.0 Safari/537.36" version="24.8.0">
  <diagram name="High-Level" id="90a13364-a465-7bf4-72fc-28e22215d7a0">
    <mxGraphModel dx="1138" dy="633" grid="1" gridSize="10" guides="1" tooltips="1" connect="1" arrows="1" fold="1" page="1" pageScale="1.5" pageWidth="1169" pageHeight="826" background="none" math="0" shadow="0">
      <root>
        <mxCell id="0" style=";html=1;" />
        <mxCell id="1" style=";html=1;" parent="0" />
        <mxCell id="3a17f1ce550125da-2" value="&lt;div style=&quot;text-align: justify;&quot;&gt;&lt;br&gt;&lt;/div&gt;" style="whiteSpace=wrap;html=1;shadow=1;fontSize=18;fillColor=#83c3a2;strokeColor=#666666;" parent="1" vertex="1">
          <mxGeometry x="770" y="410" width="510" height="480" as="geometry" />
        </mxCell>
        <mxCell id="3a17f1ce550125da-13" style="edgeStyle=elbowEdgeStyle;rounded=0;html=1;startArrow=none;startFill=0;jettySize=auto;orthogonalLoop=1;fontSize=18;elbow=vertical;" parent="1" source="3a17f1ce550125da-2" target="3a17f1ce550125da-4" edge="1">
          <mxGeometry relative="1" as="geometry" />
        </mxCell>
        <mxCell id="3a17f1ce550125da-14" style="edgeStyle=elbowEdgeStyle;rounded=0;html=1;startArrow=none;startFill=0;jettySize=auto;orthogonalLoop=1;fontSize=18;elbow=vertical;" parent="1" source="3a17f1ce550125da-2" target="3a17f1ce550125da-5" edge="1">
          <mxGeometry relative="1" as="geometry" />
        </mxCell>
        <mxCell id="3a17f1ce550125da-4" value="&lt;font style=&quot;font-size: 16px;&quot;&gt;ETL&lt;/font&gt;&lt;div style=&quot;line-height: 90%;&quot;&gt;&lt;font style=&quot;font-size: 12px;&quot;&gt;(Extract|Transform|Load)&lt;/font&gt;&lt;/div&gt;" style="whiteSpace=wrap;html=1;shadow=1;fontSize=18;fillColor=#f5f5f5;strokeColor=#666666;" parent="1" vertex="1">
          <mxGeometry x="820" y="450" width="140" height="50" as="geometry" />
        </mxCell>
        <mxCell id="3a17f1ce550125da-5" value="&lt;font style=&quot;font-size: 16px;&quot;&gt;?&lt;/font&gt;&lt;div style=&quot;line-height: 100%;&quot;&gt;&lt;font style=&quot;font-size: 12px;&quot;&gt;(US specific ETL?..)&lt;/font&gt;&lt;/div&gt;" style="whiteSpace=wrap;html=1;shadow=1;fontSize=18;fillColor=#f5f5f5;strokeColor=#666666;" parent="1" vertex="1">
          <mxGeometry x="820" y="510" width="140" height="40" as="geometry" />
        </mxCell>
        <mxCell id="3a17f1ce550125da-20" style="rounded=0;html=1;startArrow=none;startFill=0;jettySize=auto;orthogonalLoop=1;fontSize=18;elbow=vertical;exitX=1;exitY=0.25;exitDx=0;exitDy=0;entryX=0;entryY=0.25;entryDx=0;entryDy=0;" parent="1" source="SBrTo1uUXhMfuRTH1YRB-1" target="SBrTo1uUXhMfuRTH1YRB-31" edge="1">
          <mxGeometry relative="1" as="geometry">
            <mxPoint x="717" y="514" as="sourcePoint" />
          </mxGeometry>
        </mxCell>
        <mxCell id="SBrTo1uUXhMfuRTH1YRB-3" value="&lt;font style=&quot;font-size: 13px;&quot;&gt;&amp;nbsp;Raw Data&amp;nbsp;&lt;/font&gt;" style="edgeLabel;html=1;align=center;verticalAlign=middle;resizable=0;points=[];" vertex="1" connectable="0" parent="3a17f1ce550125da-20">
          <mxGeometry x="0.1578" y="-2" relative="1" as="geometry">
            <mxPoint x="-5" y="-2" as="offset" />
          </mxGeometry>
        </mxCell>
        <mxCell id="3a17f1ce550125da-21" style="rounded=0;html=1;startArrow=none;startFill=0;jettySize=auto;orthogonalLoop=1;fontSize=18;exitX=1;exitY=0.75;exitDx=0;exitDy=0;entryX=0;entryY=0.75;entryDx=0;entryDy=0;" parent="1" source="3a17f1ce550125da-9" target="SBrTo1uUXhMfuRTH1YRB-37" edge="1">
          <mxGeometry relative="1" as="geometry">
            <mxPoint x="610" y="825.9999999999998" as="sourcePoint" />
            <mxPoint x="840" y="787" as="targetPoint" />
          </mxGeometry>
        </mxCell>
        <mxCell id="SBrTo1uUXhMfuRTH1YRB-4" value="&lt;font style=&quot;font-size: 13px;&quot;&gt;&amp;nbsp;Status&amp;nbsp;&lt;/font&gt;" style="edgeLabel;html=1;align=center;verticalAlign=middle;resizable=0;points=[];" vertex="1" connectable="0" parent="3a17f1ce550125da-21">
          <mxGeometry x="0.1736" y="-3" relative="1" as="geometry">
            <mxPoint x="-10" y="-3" as="offset" />
          </mxGeometry>
        </mxCell>
        <mxCell id="3a17f1ce550125da-9" value="&lt;ul style=&quot;line-height: 100%;&quot;&gt;&lt;li&gt;Guiding&lt;/li&gt;&lt;li&gt;Engine(s?..)&lt;/li&gt;&lt;li&gt;Sensor adjust&lt;/li&gt;&lt;li&gt;whatever have you&lt;/li&gt;&lt;/ul&gt;" style="whiteSpace=wrap;html=1;shadow=1;fontSize=18;fillColor=#f5f5f5;strokeColor=#666666;align=left;" parent="1" vertex="1">
          <mxGeometry x="430" y="686" width="250" height="154" as="geometry" />
        </mxCell>
        <mxCell id="SBrTo1uUXhMfuRTH1YRB-1" value="&lt;pre style=&quot;&quot;&gt;&lt;ul&gt;&lt;li style=&quot;&quot;&gt;&lt;font style=&quot;font-size: 18px;&quot; face=&quot;Helvetica&quot;&gt;RGB camera stream&lt;/font&gt;&lt;/li&gt;&lt;li style=&quot;&quot;&gt;&lt;span style=&quot;&quot;&gt;&lt;font face=&quot;Helvetica&quot; style=&quot;font-size: 18px;&quot;&gt;Ultrasound Distance s.&lt;/font&gt;&lt;/span&gt;&lt;/li&gt;&lt;li style=&quot;&quot;&gt;&lt;font face=&quot;Helvetica&quot; style=&quot;font-size: 18px;&quot;&gt;Other?...&lt;/font&gt;&lt;/li&gt;&lt;/ul&gt;&lt;/pre&gt;" style="whiteSpace=wrap;html=1;shadow=1;fontSize=18;fillColor=#f5f5f5;strokeColor=#666666;align=left;" vertex="1" parent="1">
          <mxGeometry x="420" y="410" width="250" height="186" as="geometry" />
        </mxCell>
        <mxCell id="SBrTo1uUXhMfuRTH1YRB-2" value="&lt;span style=&quot;font-size: 18px; text-align: justify;&quot;&gt;Autonomy Module&lt;/span&gt;" style="shape=callout;whiteSpace=wrap;html=1;perimeter=calloutPerimeter;base=170;size=34;position=0.86;position2=1;fillColor=#6d8764;strokeColor=#3A5431;fontColor=#ffffff;" vertex="1" parent="1">
          <mxGeometry x="770" y="364" width="510" height="80" as="geometry" />
        </mxCell>
        <mxCell id="SBrTo1uUXhMfuRTH1YRB-7" value="" style="endArrow=classic;html=1;rounded=0;entryX=1;entryY=0.5;entryDx=0;entryDy=0;strokeWidth=1;exitX=0;exitY=0.25;exitDx=0;exitDy=0;elbow=vertical;" edge="1" parent="1" source="SBrTo1uUXhMfuRTH1YRB-37" target="3a17f1ce550125da-9">
          <mxGeometry width="50" height="50" relative="1" as="geometry">
            <mxPoint x="840" y="730" as="sourcePoint" />
            <mxPoint x="610" y="733.4999999999998" as="targetPoint" />
          </mxGeometry>
        </mxCell>
        <mxCell id="SBrTo1uUXhMfuRTH1YRB-8" value="&lt;font style=&quot;font-size: 13px;&quot;&gt;&amp;nbsp;Control&amp;nbsp;&lt;/font&gt;" style="edgeLabel;html=1;align=center;verticalAlign=middle;resizable=0;points=[];" vertex="1" connectable="0" parent="SBrTo1uUXhMfuRTH1YRB-7">
          <mxGeometry x="-0.2124" y="-4" relative="1" as="geometry">
            <mxPoint x="-9" y="4" as="offset" />
          </mxGeometry>
        </mxCell>
        <mxCell id="SBrTo1uUXhMfuRTH1YRB-9" value="&lt;span style=&quot;font-size: 18px;&quot;&gt;Sensors&lt;/span&gt;" style="shape=callout;whiteSpace=wrap;html=1;perimeter=calloutPerimeter;base=73;position2=1;size=50;position=0.8;fillColor=#1ba1e2;strokeColor=#006EAF;fontColor=#ffffff;" vertex="1" parent="1">
          <mxGeometry x="420" y="370" width="250" height="86" as="geometry" />
        </mxCell>
        <mxCell id="SBrTo1uUXhMfuRTH1YRB-10" value="&lt;span style=&quot;font-size: 18px;&quot;&gt;Actuators&lt;/span&gt;" style="shape=callout;whiteSpace=wrap;html=1;perimeter=calloutPerimeter;base=73;position2=1;size=46;position=0.8;fillColor=#f0a30a;strokeColor=#BD7000;fontColor=#000000;" vertex="1" parent="1">
          <mxGeometry x="430" y="650" width="250" height="86" as="geometry" />
        </mxCell>
        <mxCell id="SBrTo1uUXhMfuRTH1YRB-20" value="" style="endArrow=classic;html=1;rounded=0;entryX=0;entryY=0.25;entryDx=0;entryDy=0;exitX=0;exitY=0.25;exitDx=0;exitDy=0;" edge="1" parent="1" source="3a17f1ce550125da-2" target="3a17f1ce550125da-4">
          <mxGeometry relative="1" as="geometry">
            <mxPoint x="740" y="550" as="sourcePoint" />
            <mxPoint x="840" y="550" as="targetPoint" />
          </mxGeometry>
        </mxCell>
        <mxCell id="SBrTo1uUXhMfuRTH1YRB-21" value="RGB" style="edgeLabel;resizable=0;html=1;;align=center;verticalAlign=middle;" connectable="0" vertex="1" parent="SBrTo1uUXhMfuRTH1YRB-20">
          <mxGeometry relative="1" as="geometry" />
        </mxCell>
        <mxCell id="SBrTo1uUXhMfuRTH1YRB-22" value="" style="endArrow=classic;html=1;rounded=0;exitX=0;exitY=0.25;exitDx=0;exitDy=0;entryX=0;entryY=0.5;entryDx=0;entryDy=0;" edge="1" parent="1" source="3a17f1ce550125da-2" target="3a17f1ce550125da-5">
          <mxGeometry relative="1" as="geometry">
            <mxPoint x="770" y="500" as="sourcePoint" />
            <mxPoint x="820" y="500" as="targetPoint" />
          </mxGeometry>
        </mxCell>
        <mxCell id="SBrTo1uUXhMfuRTH1YRB-23" value="US" style="edgeLabel;resizable=0;html=1;;align=center;verticalAlign=middle;" connectable="0" vertex="1" parent="SBrTo1uUXhMfuRTH1YRB-22">
          <mxGeometry relative="1" as="geometry" />
        </mxCell>
        <mxCell id="SBrTo1uUXhMfuRTH1YRB-40" style="edgeStyle=orthogonalEdgeStyle;rounded=0;orthogonalLoop=1;jettySize=auto;html=1;exitX=1;exitY=0.5;exitDx=0;exitDy=0;entryX=0.5;entryY=0;entryDx=0;entryDy=0;strokeWidth=2;" edge="1" parent="1" source="3a17f1ce550125da-4" target="SBrTo1uUXhMfuRTH1YRB-50">
          <mxGeometry relative="1" as="geometry" />
        </mxCell>
        <mxCell id="SBrTo1uUXhMfuRTH1YRB-34" style="rounded=0;html=1;startArrow=none;startFill=0;jettySize=auto;orthogonalLoop=1;fontSize=18;elbow=vertical;exitX=1;exitY=0.75;exitDx=0;exitDy=0;entryX=0;entryY=0.75;entryDx=0;entryDy=0;" edge="1" parent="1" source="SBrTo1uUXhMfuRTH1YRB-1" target="SBrTo1uUXhMfuRTH1YRB-31">
          <mxGeometry relative="1" as="geometry">
            <mxPoint x="610" y="560" as="sourcePoint" />
            <mxPoint x="820" y="560" as="targetPoint" />
          </mxGeometry>
        </mxCell>
        <mxCell id="SBrTo1uUXhMfuRTH1YRB-35" value="&lt;font style=&quot;font-size: 13px;&quot;&gt;&amp;nbsp;Status&amp;nbsp;&lt;/font&gt;" style="edgeLabel;html=1;align=center;verticalAlign=middle;resizable=0;points=[];" vertex="1" connectable="0" parent="SBrTo1uUXhMfuRTH1YRB-34">
          <mxGeometry x="0.1736" y="-3" relative="1" as="geometry">
            <mxPoint x="-22" y="-3" as="offset" />
          </mxGeometry>
        </mxCell>
        <mxCell id="SBrTo1uUXhMfuRTH1YRB-36" value="&lt;div style=&quot;&quot;&gt;&lt;br&gt;&lt;/div&gt;" style="whiteSpace=wrap;html=1;shadow=1;fontSize=18;fillColor=none;strokeColor=#212121;align=center;strokeWidth=2;" vertex="1" parent="1">
          <mxGeometry x="1010" y="480" width="250" height="370" as="geometry" />
        </mxCell>
        <mxCell id="SBrTo1uUXhMfuRTH1YRB-37" value="&lt;div style=&quot;&quot;&gt;Controller&lt;/div&gt;&lt;div style=&quot;&quot;&gt;(Validate + propagate to HW)&lt;/div&gt;" style="whiteSpace=wrap;html=1;shadow=1;fontSize=18;fillColor=#f5f5f5;strokeColor=#666666;align=center;" vertex="1" parent="1">
          <mxGeometry x="780" y="686" width="160" height="154" as="geometry" />
        </mxCell>
        <mxCell id="SBrTo1uUXhMfuRTH1YRB-39" value="&lt;font style=&quot;font-size: 18px;&quot;&gt;Preprocess&lt;/font&gt;" style="text;html=1;align=center;verticalAlign=middle;whiteSpace=wrap;rounded=0;fillColor=default;" vertex="1" parent="1">
          <mxGeometry x="770" y="410" width="200" height="34" as="geometry" />
        </mxCell>
        <mxCell id="SBrTo1uUXhMfuRTH1YRB-31" value="" style="swimlane;startSize=0;fillStyle=auto;fillColor=default;gradientColor=none;strokeColor=default;strokeWidth=2;" vertex="1" parent="1">
          <mxGeometry x="770" y="410" width="200" height="210" as="geometry" />
        </mxCell>
        <mxCell id="SBrTo1uUXhMfuRTH1YRB-33" value="" style="endArrow=none;dashed=1;html=1;dashPattern=1 3;strokeWidth=2;rounded=0;entryX=0.098;entryY=0.375;entryDx=0;entryDy=0;entryPerimeter=0;" edge="1" parent="SBrTo1uUXhMfuRTH1YRB-31" target="3a17f1ce550125da-2">
          <mxGeometry width="50" height="50" relative="1" as="geometry">
            <mxPoint y="120" as="sourcePoint" />
            <mxPoint x="40" y="146" as="targetPoint" />
          </mxGeometry>
        </mxCell>
        <mxCell id="SBrTo1uUXhMfuRTH1YRB-27" value="" style="endArrow=none;dashed=1;html=1;dashPattern=1 3;strokeWidth=2;rounded=0;" edge="1" parent="SBrTo1uUXhMfuRTH1YRB-31">
          <mxGeometry width="50" height="50" relative="1" as="geometry">
            <mxPoint x="124.57000000000005" y="190" as="sourcePoint" />
            <mxPoint x="124.57000000000005" y="160" as="targetPoint" />
          </mxGeometry>
        </mxCell>
        <mxCell id="SBrTo1uUXhMfuRTH1YRB-47" value="" style="endArrow=classic;html=1;rounded=0;entryX=1;entryY=0.5;entryDx=0;entryDy=0;exitX=0.5;exitY=1;exitDx=0;exitDy=0;strokeWidth=2;edgeStyle=elbowEdgeStyle;elbow=vertical;" edge="1" parent="1" source="SBrTo1uUXhMfuRTH1YRB-55" target="SBrTo1uUXhMfuRTH1YRB-37">
          <mxGeometry width="50" height="50" relative="1" as="geometry">
            <mxPoint x="925" y="770" as="sourcePoint" />
            <mxPoint x="975" y="720" as="targetPoint" />
            <Array as="points">
              <mxPoint x="1040" y="763" />
            </Array>
          </mxGeometry>
        </mxCell>
        <mxCell id="SBrTo1uUXhMfuRTH1YRB-53" style="rounded=0;orthogonalLoop=1;jettySize=auto;html=1;exitX=0.25;exitY=1;exitDx=0;exitDy=0;entryX=0.25;entryY=0;entryDx=0;entryDy=0;" edge="1" parent="1" source="SBrTo1uUXhMfuRTH1YRB-49" target="SBrTo1uUXhMfuRTH1YRB-52">
          <mxGeometry relative="1" as="geometry" />
        </mxCell>
        <mxCell id="SBrTo1uUXhMfuRTH1YRB-49" value="&lt;font style=&quot;font-size: 16px;&quot;&gt;Distance Map (?)&lt;/font&gt;" style="rounded=0;whiteSpace=wrap;html=1;" vertex="1" parent="1">
          <mxGeometry x="1025" y="494" width="100" height="50" as="geometry" />
        </mxCell>
        <mxCell id="SBrTo1uUXhMfuRTH1YRB-54" style="rounded=0;orthogonalLoop=1;jettySize=auto;html=1;exitX=0.75;exitY=1;exitDx=0;exitDy=0;entryX=0.75;entryY=0;entryDx=0;entryDy=0;" edge="1" parent="1" source="SBrTo1uUXhMfuRTH1YRB-50" target="SBrTo1uUXhMfuRTH1YRB-52">
          <mxGeometry relative="1" as="geometry" />
        </mxCell>
        <mxCell id="SBrTo1uUXhMfuRTH1YRB-50" value="&lt;div style=&quot;font-size: 16px;&quot;&gt;&lt;font style=&quot;font-size: 16px;&quot;&gt;Obstacle&lt;/font&gt;&lt;/div&gt;&lt;font style=&quot;font-size: 16px;&quot;&gt;Detection&lt;/font&gt;" style="rounded=0;whiteSpace=wrap;html=1;" vertex="1" parent="1">
          <mxGeometry x="1145" y="497" width="100" height="44" as="geometry" />
        </mxCell>
        <mxCell id="SBrTo1uUXhMfuRTH1YRB-51" style="rounded=0;orthogonalLoop=1;jettySize=auto;html=1;exitX=1;exitY=0.5;exitDx=0;exitDy=0;entryX=0;entryY=0.5;entryDx=0;entryDy=0;strokeWidth=2;" edge="1" parent="1" source="3a17f1ce550125da-5" target="SBrTo1uUXhMfuRTH1YRB-49">
          <mxGeometry relative="1" as="geometry">
            <mxPoint x="960" y="510.9999999999999" as="sourcePoint" />
            <mxPoint x="1025" y="572.9999999999999" as="targetPoint" />
          </mxGeometry>
        </mxCell>
        <mxCell id="SBrTo1uUXhMfuRTH1YRB-58" style="rounded=0;orthogonalLoop=1;jettySize=auto;html=1;exitX=0.5;exitY=1;exitDx=0;exitDy=0;entryX=0.5;entryY=0;entryDx=0;entryDy=0;" edge="1" parent="1" source="SBrTo1uUXhMfuRTH1YRB-52" target="SBrTo1uUXhMfuRTH1YRB-55">
          <mxGeometry relative="1" as="geometry" />
        </mxCell>
        <mxCell id="SBrTo1uUXhMfuRTH1YRB-52" value="&lt;font style=&quot;font-size: 16px;&quot;&gt;Fusion | Perception&lt;/font&gt;" style="rounded=0;whiteSpace=wrap;html=1;" vertex="1" parent="1">
          <mxGeometry x="1050" y="570" width="190" height="30" as="geometry" />
        </mxCell>
        <mxCell id="SBrTo1uUXhMfuRTH1YRB-55" value="&lt;font style=&quot;font-size: 16px;&quot;&gt;Planning&lt;/font&gt;" style="rounded=0;whiteSpace=wrap;html=1;" vertex="1" parent="1">
          <mxGeometry x="1085" y="635" width="120" height="60" as="geometry" />
        </mxCell>
        <mxCell id="SBrTo1uUXhMfuRTH1YRB-57" style="rounded=0;orthogonalLoop=1;jettySize=auto;html=1;exitX=0;exitY=0;exitDx=0;exitDy=31.5;exitPerimeter=0;entryX=1;entryY=0.5;entryDx=0;entryDy=0;" edge="1" parent="1" source="SBrTo1uUXhMfuRTH1YRB-56" target="SBrTo1uUXhMfuRTH1YRB-55">
          <mxGeometry relative="1" as="geometry" />
        </mxCell>
        <mxCell id="SBrTo1uUXhMfuRTH1YRB-56" value="&lt;font style=&quot;font-size: 16px;&quot;&gt;Current&lt;/font&gt;&lt;div style=&quot;font-size: 16px;&quot;&gt;&lt;font style=&quot;font-size: 16px;&quot;&gt;Task&lt;/font&gt;&lt;/div&gt;" style="shape=cylinder3;whiteSpace=wrap;html=1;boundedLbl=1;backgroundOutline=1;size=15;" vertex="1" parent="1">
          <mxGeometry x="1290" y="634" width="70" height="96" as="geometry" />
        </mxCell>
        <mxCell id="SBrTo1uUXhMfuRTH1YRB-59" value="&lt;ul style=&quot;line-height: 100%; font-size: 16px;&quot;&gt;&lt;li&gt;Parking&lt;/li&gt;&lt;li&gt;Slalom&lt;/li&gt;&lt;li&gt;Navigate&lt;/li&gt;&lt;li&gt;etc (future tasks)&lt;/li&gt;&lt;/ul&gt;" style="shape=callout;whiteSpace=wrap;html=1;perimeter=calloutPerimeter;position2=0.25;size=30;position=0.33;fillColor=#a0522d;fontColor=#ffffff;strokeColor=#6D1F00;align=left;" vertex="1" parent="1">
          <mxGeometry x="1320" y="541" width="160" height="116" as="geometry" />
        </mxCell>
      </root>
    </mxGraphModel>
  </diagram>
</mxfile>
